<svg xmlns="http://www.w3.org/2000/svg" width="18" height="18" fill="currentColor" viewBox="0 0 18 18">
  <g clip-path="url(#a)">
    <path d="M13.455 13.455A7.553 7.553 0 0 1 9 15C3.75 15 .75 9 .75 9a13.838 13.838 0 0 1 3.795-4.455m2.88-1.365A6.84 6.84 0 0 1 9 3c5.25 0 8.25 6 8.25 6a13.874 13.874 0 0 1-1.62 2.393m-5.04-.803a2.248 2.248 0 0 1-3.732-.691A2.25 2.25 0 0 1 7.41 7.41M.75.75l16.5 16.5"/>
  </g>
  <defs>
    <clipPath id="a">
      <path d="M0 0h18v18H0z"/>
    </clipPath>
  </defs>
</svg>
