<svg xmlns="http://www.w3.org/2000/svg" aria-hidden="true" style="position:absolute;width:0;height:0;overflow:hidden">
  <defs>
    <symbol id="icon-arrow-left" viewBox="0 0 32 32">
      <path stroke-linecap="round" stroke-linejoin="round" stroke-width="2.6" d="M25.426 16.001 6.57 15.999m0 0 9.427 9.429M6.57 15.999l9.429-9.427"/>
    </symbol>
    <symbol id="icon-arrow-up-right" viewBox="0 0 32 32">
      <path stroke-linecap="round" stroke-linejoin="round" stroke-width="2.6" d="M9.334 22.666 22.667 9.333m0 0H9.334m13.333 0v13.333"/>
    </symbol>
    <symbol id="icon-burger-menu" viewBox="0 0 32 32">
      <path stroke-linecap="round" stroke-linejoin="round" stroke-width="2.286" d="M28 13.333H4M28 8H4m24 10.667H4M28 24H4"/>
    </symbol>
    <symbol id="icon-checked" viewBox="0 0 32 32">
      <path stroke-width="3.574" d="m8.889 17.778 5.333 3.556L24 10.667"/>
    </symbol>
    <symbol id="icon-chevron-down" viewBox="0 0 32 32">
      <path stroke-linecap="round" stroke-linejoin="round" stroke-width="2.667" d="m8 12 8 8 8-8"/>
    </symbol>
    <symbol id="icon-chevron-up" viewBox="0 0 32 32">
      <path stroke-linecap="round" stroke-linejoin="round" stroke-width="2.667" d="m8 20 8-8 8 8"/>
    </symbol>
    <symbol id="icon-eye-icon" viewBox="0 0 32 32">
      <path stroke-linecap="round" stroke-linejoin="round" stroke-width="2.88" d="M1.333 16S6.666 5.333 16 5.333 30.667 16 30.667 16 25.334 26.667 16 26.667C6.667 26.667 1.333 16 1.333 16z"/>
      <path stroke-linecap="round" stroke-linejoin="round" stroke-width="2.88" d="M15.999 20a4 4 0 1 0 0-8 4 4 0 0 0 0 8z"/>
    </symbol>
    <symbol id="icon-eye-icon-crossed" viewBox="0 0 32 32">
      <path stroke-linecap="round" stroke-linejoin="round" stroke-width="3.2" d="M23.92 23.92A13.43 13.43 0 0 1 16 26.667C6.667 26.667 1.333 16 1.333 16A24.605 24.605 0 0 1 8.08 8.08m5.12-2.427a12.161 12.161 0 0 1 2.8-.32C25.333 5.333 30.667 16 30.667 16a24.646 24.646 0 0 1-2.88 4.253m-8.96-1.426a4.01 4.01 0 0 1-2.855 1.273 3.996 3.996 0 0 1-3.779-2.502 3.995 3.995 0 0 1 .983-4.424M1.333 1.333l29.333 29.333"/>
    </symbol>
    <symbol id="icon-facebook" viewBox="0 0 32 32">
      <path d="M19.52 4.64h.96v3.6h-1.2c-.48 0-.96 0-1.2.24s-.24.48-.24 1.04v1.28h2.64v3.04h-2.64v13.2h-4.08V13.76H11.6v-3.04h2.16V9.68c0-1.76.24-3.04.72-3.6.72-1.04 2.16-1.52 4.32-1.52.24.08.48.08.72.08z"/>
    </symbol>
    <symbol id="icon-heart" viewBox="0 0 32 32">
      <path stroke-linecap="round" stroke-linejoin="round" stroke-width="2.6" d="M27.786 6.146a7.345 7.345 0 0 0-5.187-2.15 7.33 7.33 0 0 0-5.187 2.15l-1.413 1.413-1.413-1.413a7.333 7.333 0 0 0-10.374 0 7.333 7.333 0 0 0 0 10.374l11.787 11.787L27.786 16.52a7.345 7.345 0 0 0 2.149-5.187 7.33 7.33 0 0 0-2.149-5.187z"/>
    </symbol>
    <symbol id="icon-instagram" viewBox="0 0 32 32">
      <path d="M28.718 10.756a9.264 9.264 0 0 0-.596-3.145 6.547 6.547 0 0 0-3.743-3.737 9.42 9.42 0 0 0-3.108-.596c-1.368-.061-1.801-.078-5.273-.078s-3.916 0-5.274.078a9.418 9.418 0 0 0-3.106.596 6.541 6.541 0 0 0-3.743 3.737 9.288 9.288 0 0 0-.596 3.101c-.061 1.367-.08 1.8-.08 5.265s0 3.909.08 5.265a9.335 9.335 0 0 0 .596 3.104 6.55 6.55 0 0 0 3.744 3.736c.989.386 2.04.604 3.106.639 1.369.061 1.803.08 5.274.08s3.916 0 5.274-.08a9.362 9.362 0 0 0 3.108-.595 6.555 6.555 0 0 0 3.743-3.737 9.35 9.35 0 0 0 .596-3.104c.061-1.365.08-1.798.08-5.265-.003-3.466-.003-3.906-.082-5.264zM15.99 22.531c-3.631 0-6.572-2.936-6.572-6.561s2.941-6.561 6.572-6.561c3.628 0 6.572 2.936 6.572 6.561s-2.944 6.561-6.572 6.561zm6.834-11.835a1.53 1.53 0 1 1 0-3.06 1.53 1.53 0 1 1 0 3.06z"/>
      <path d="M15.992 19.976a4.004 4.004 0 1 0 0-8.009 4.004 4.004 0 0 0 0 8.009z"/>
    </symbol>
    <symbol id="icon-minus" viewBox="0 0 32 32">
      <path stroke-linecap="round" stroke-linejoin="round" stroke-width="3" d="M6.666 16h18.667"/>
    </symbol>
    <symbol id="icon-plus" viewBox="0 0 32 32">
      <path stroke-linecap="round" stroke-linejoin="round" stroke-width="3" d="M15.999 6.667v18.667M6.666 16h18.667"/>
    </symbol>
    <symbol id="icon-trash" viewBox="0 0 32 32">
      <path stroke-linecap="round" stroke-linejoin="round" stroke-width="2.6" d="M12 4h8M4 8h24m-2.667 0-.935 14.026c-.14 2.104-.21 3.156-.665 3.954a4.007 4.007 0 0 1-1.731 1.62c-.826.4-1.881.4-3.99.4h-4.025c-2.109 0-3.163 0-3.99-.4a4.001 4.001 0 0 1-1.731-1.62c-.455-.798-.525-1.85-.665-3.954L6.666 8"/>
    </symbol>
    <symbol id="icon-x" viewBox="0 0 32 32">
      <path stroke-linecap="round" stroke-linejoin="round" stroke-width="3" d="M24 8 8 24M8 8l16 16"/>
    </symbol>
    <symbol id="icon-youtube" viewBox="0 0 32 32">
      <path d="M30.112 9.356s-.288-2.08-1.152-2.971c-1.056-1.189-2.304-1.189-2.88-1.288C22.048 4.8 16 4.8 16 4.8s-6.048 0-10.08.297c-.576.099-1.824.099-2.88 1.288-.864.891-1.152 2.971-1.152 2.971S1.6 11.733 1.6 14.11v2.179c0 2.377.288 4.853.288 4.853s.288 2.08 1.152 2.971c1.056 1.189 2.496 1.189 3.168 1.288 2.304.099 9.792.198 9.792.198s6.048 0 10.08-.297c.576-.099 1.824-.099 2.88-1.288.864-.891 1.152-2.971 1.152-2.971s.288-2.377.288-4.754V14.11c0-2.377-.288-4.754-.288-4.754zm-17.088 9.707v-8.32l7.776 4.16-7.776 4.16z"/>
    </symbol>
    <symbol id="icon-eye-icon1" viewBox="0 0 32 32">
      <path stroke-linecap="round" stroke-linejoin="round" stroke-width="2.88" d="M1.333 16S6.666 5.333 16 5.333 30.667 16 30.667 16 25.334 26.667 16 26.667C6.667 26.667 1.333 16 1.333 16z"/>
      <path stroke-linecap="round" stroke-linejoin="round" stroke-width="2.88" d="M15.999 20a4 4 0 1 0 0-8 4 4 0 0 0 0 8z"/>
    </symbol>
    <symbol id="icon-youtube1" viewBox="0 0 32 32">
      <path d="M30.112 9.357s-.288-2.08-1.152-2.973c-1.056-1.187-2.304-1.187-2.88-1.286C22.048 4.8 16 4.8 16 4.8s-6.048 0-10.08.298c-.576.099-1.824.099-2.88 1.286-.864.893-1.152 2.973-1.152 2.973S1.6 11.733 1.6 14.111v2.179c0 2.378.288 4.853.288 4.853s.288 2.08 1.152 2.971c1.056 1.189 2.496 1.189 3.168 1.288C8.512 25.501 16 25.6 16 25.6s6.048 0 10.08-.298c.576-.099 1.824-.099 2.88-1.288.864-.891 1.152-2.971 1.152-2.971s.288-2.376.288-4.754V14.11c0-2.378-.288-4.754-.288-4.754zm-17.088 9.705v-8.32l7.776 4.16-7.776 4.16z"/>
    </symbol>
    <symbol id="icon-x1" viewBox="0 0 32 32">
      <path d="M24 8 8 24zM8 8l16 16z"/>
    </symbol>
    <symbol id="icon-trash1" viewBox="0 0 32 32">
      <path d="M12 4h8zM4 8h24zm21.334 0-.936 14.026c-.14 2.104-.21 3.156-.664 3.954a4.03 4.03 0 0 1-1.709 1.61l-.023.01c-.826.4-1.88.4-3.99.4h-4.024c-2.11 0-3.164 0-3.99-.4a4.03 4.03 0 0 1-1.722-1.601l-.01-.019c-.454-.798-.524-1.85-.664-3.954L6.666 8z"/>
    </symbol>
    <symbol id="icon-plus1" viewBox="0 0 32 32">
      <path d="M16 6.666v18.668zM6.666 16h18.666z"/>
    </symbol>
    <symbol id="icon-minus1" viewBox="0 0 32 32">
      <path d="M6.666 16h18.666z"/>
    </symbol>
    <symbol id="icon-instagram1" viewBox="0 0 32 32">
      <path d="M28.717 10.755a9.242 9.242 0 0 0-.617-3.207l.021.063a6.585 6.585 0 0 0-3.7-3.722l-.044-.015a9.216 9.216 0 0 0-3.097-.595h-.01c-1.366-.062-1.798-.078-5.27-.078s-3.917 0-5.274.078a9.453 9.453 0 0 0-3.107.595 6.582 6.582 0 0 0-3.727 3.693l-.015.044a9.109 9.109 0 0 0-.595 3.092v.009c-.062 1.366-.082 1.8-.082 5.264 0 3.467 0 3.91.08 5.267a9.34 9.34 0 0 0 .595 3.104 6.583 6.583 0 0 0 3.7 3.719l.044.015a9.18 9.18 0 0 0 3.091.64h.016c1.368.058 1.802.078 5.274.078s3.917 0 5.274-.08a9.364 9.364 0 0 0 3.173-.615l-.064.022a6.6 6.6 0 0 0 3.727-3.693l.016-.044a9.15 9.15 0 0 0 .595-3.095v-.009c.061-1.365.08-1.798.08-5.264-.003-3.467-.003-3.907-.083-5.264zM15.99 22.531h-.008a6.565 6.565 0 0 1-6.565-6.56 6.567 6.567 0 0 1 6.566-6.562h.012a6.566 6.566 0 0 1 6.566 6.56 6.567 6.567 0 0 1-6.566 6.562h-.005zm6.832-11.835a1.53 1.53 0 1 1 0-3.06 1.53 1.53 0 1 1 0 3.06z"/>
      <path d="m15.992 19.976.08.001a4.005 4.005 0 1 0 0-8.01l-.084.001h.004a4.006 4.006 0 0 0-.004 8.008h.004z"/>
    </symbol>
    <symbol id="icon-heart1" viewBox="0 0 32 32">
      <path d="M27.786 6.146c-1.327-1.328-3.161-2.15-5.187-2.15s-3.86.822-5.187 2.15L16 7.56l-1.414-1.414A7.335 7.335 0 1 0 4.211 16.519l.001.001L16 28.306 27.786 16.52c1.327-1.328 2.148-3.161 2.148-5.187s-.821-3.859-2.148-5.187z"/>
    </symbol>
    <symbol id="icon-facebook1" viewBox="0 0 32 32">
      <path d="M19.52 4.64h.96v3.6h-1.2c-.48 0-.96 0-1.2.24s-.24.48-.24 1.04v1.28h2.64v3.04h-2.64v13.2h-4.08V13.76H11.6v-3.04h2.16V9.68c0-1.76.24-3.04.72-3.6.72-1.04 2.16-1.52 4.32-1.52.24.08.48.08.72.08z"/>
    </symbol>
    <symbol id="icon-eye-icon2" viewBox="0 0 32 32">
      <path d="M1.333 16S6.666 5.333 16 5.333C25.333 5.333 30.666 16 30.666 16S25.333 26.667 16 26.667C6.666 26.667 1.333 16 1.333 16z"/>
      <path d="M16 20a4 4 0 0 0 0-8 4 4 0 0 0 0 8z"/>
    </symbol>
    <symbol id="icon-eye-icon-crossed1" viewBox="0 0 32 32">
      <path d="M23.92 23.92a13.338 13.338 0 0 1-7.908 2.747H16C6.667 26.667 1.333 16 1.333 16c1.713-3.152 3.977-5.791 6.689-7.877l.058-.043zM13.2 5.653c.833-.203 1.788-.32 2.771-.32h.03-.002C25.332 5.333 30.666 16 30.666 16a24.745 24.745 0 0 1-2.91 4.291l.03-.036zm5.627 13.174a3.999 3.999 0 0 1-6.625-1.202l-.01-.027a3.941 3.941 0 0 1-.291-1.499c0-1.154.489-2.194 1.27-2.924l.002-.002zM1.333 1.333l29.333 29.333z"/>
    </symbol>
    <symbol id="icon-chevron-up1" viewBox="0 0 32 32">
      <path d="m8 20 8-8 8 8z"/>
    </symbol>
    <symbol id="icon-chevron-down1" viewBox="0 0 32 32">
      <path d="m8 12 8 8 8-8z"/>
    </symbol>
    <symbol id="icon-checked1" viewBox="0 0 32 32">
      <path d="m8.889 17.778 5.333 3.556L24 10.667z"/>
    </symbol>
    <symbol id="icon-burger-menu1" viewBox="0 0 32 32">
      <path d="M28 13.334H4zM28 8H4zm0 10.666H4zM28 24H4z"/>
    </symbol>
    <symbol id="icon-arrow-up-right1" viewBox="0 0 32 32">
      <path d="M9.334 22.666 22.668 9.332zM22.668 9.332H9.334zm0 0v13.334z"/>
    </symbol>
    <symbol id="icon-arrow-left1" viewBox="0 0 32 32">
      <path d="M25.426 16H6.57zM6.57 16 16 25.428zm0 0L16 6.572z"/>
    </symbol>
    <symbol id="icon-checked11" viewBox="0 0 32 32">
      <path stroke-width="3.574" d="m8.889 17.778 5.333 3.556L24 10.667"/>
    </symbol>
    <symbol id="icon-eye-icon11" viewBox="0 0 32 32">
      <path stroke-linecap="round" stroke-linejoin="round" stroke-width="3.2" d="M23.92 23.92A13.43 13.43 0 0 1 16 26.667C6.667 26.667 1.333 16 1.333 16A24.605 24.605 0 0 1 8.08 8.08m5.12-2.427a12.161 12.161 0 0 1 2.8-.32C25.333 5.333 30.667 16 30.667 16a24.646 24.646 0 0 1-2.88 4.253m-8.96-1.426a4.01 4.01 0 0 1-2.855 1.273 3.996 3.996 0 0 1-3.779-2.502 3.995 3.995 0 0 1 .983-4.424M1.333 1.333l29.333 29.333"/>
    </symbol>
    <symbol id="icon-arrow-up-right11" viewBox="0 0 32 32">
      <path stroke-linecap="round" stroke-linejoin="round" stroke-width="2.6" d="M9.334 22.666 22.667 9.333m0 0H9.334m13.333 0v13.333"/>
    </symbol>
    <symbol id="icon-arrow-left11" viewBox="0 0 32 32">
      <path stroke-linecap="round" stroke-linejoin="round" stroke-width="2.6" d="M25.426 16.001 6.57 15.999m0 0 9.427 9.429M6.57 15.999l9.429-9.427"/>
    </symbol>
    <symbol id="icon-chevron-up11" viewBox="0 0 32 32">
      <path stroke-linecap="round" stroke-linejoin="round" stroke-width="2.667" d="m8 20 8-8 8 8"/>
    </symbol>
    <symbol id="icon-trash11" viewBox="0 0 32 32">
      <path stroke-linecap="round" stroke-linejoin="round" stroke-width="2.6" d="M12 4h8M4 8h24m-2.667 0-.935 14.026c-.14 2.104-.21 3.156-.665 3.954a4.007 4.007 0 0 1-1.731 1.62c-.826.4-1.881.4-3.99.4h-4.025c-2.109 0-3.163 0-3.99-.4a4.001 4.001 0 0 1-1.731-1.62c-.455-.798-.525-1.85-.665-3.954L6.666 8"/>
    </symbol>
    <symbol id="icon-x11" viewBox="0 0 32 32">
      <path stroke-linecap="round" stroke-linejoin="round" stroke-width="3" d="M24 8 8 24M8 8l16 16"/>
    </symbol>
    <symbol id="icon-plus11" viewBox="0 0 32 32">
      <path stroke-linecap="round" stroke-linejoin="round" stroke-width="3" d="M15.999 6.667v18.667M6.666 16h18.667"/>
    </symbol>
    <symbol id="icon-minus11" viewBox="0 0 32 32">
      <path stroke-linecap="round" stroke-linejoin="round" stroke-width="3" d="M6.666 16h18.667"/>
    </symbol>
    <symbol id="icon-heart11" viewBox="0 0 32 32">
      <path stroke-linecap="round" stroke-linejoin="round" stroke-width="2.6" d="M27.786 6.146a7.345 7.345 0 0 0-5.187-2.15 7.33 7.33 0 0 0-5.187 2.15l-1.413 1.413-1.413-1.413a7.333 7.333 0 0 0-10.374 0 7.333 7.333 0 0 0 0 10.374l11.787 11.787L27.786 16.52a7.345 7.345 0 0 0 2.149-5.187 7.33 7.33 0 0 0-2.149-5.187z"/>
    </symbol>
    <symbol id="icon-instagram11" viewBox="0 0 32 32">
      <path d="M28.718 10.756a9.264 9.264 0 0 0-.596-3.145 6.547 6.547 0 0 0-3.743-3.737 9.42 9.42 0 0 0-3.108-.596c-1.368-.061-1.801-.078-5.273-.078s-3.916 0-5.274.078a9.418 9.418 0 0 0-3.106.596 6.541 6.541 0 0 0-3.743 3.737 9.288 9.288 0 0 0-.596 3.101c-.061 1.367-.08 1.8-.08 5.265s0 3.909.08 5.265a9.335 9.335 0 0 0 .596 3.104 6.55 6.55 0 0 0 3.744 3.736c.989.386 2.04.604 3.106.639 1.369.061 1.803.08 5.274.08s3.916 0 5.274-.08a9.362 9.362 0 0 0 3.108-.595 6.555 6.555 0 0 0 3.743-3.737 9.35 9.35 0 0 0 .596-3.104c.061-1.365.08-1.798.08-5.265-.003-3.466-.003-3.906-.082-5.264zM15.99 22.531c-3.631 0-6.572-2.936-6.572-6.561s2.941-6.561 6.572-6.561c3.628 0 6.572 2.936 6.572 6.561s-2.944 6.561-6.572 6.561zm6.834-11.835a1.53 1.53 0 1 1 0-3.06 1.53 1.53 0 1 1 0 3.06z"/>
      <path d="M15.992 19.976a4.004 4.004 0 1 0 0-8.009 4.004 4.004 0 0 0 0 8.009z"/>
    </symbol>
    <symbol id="icon-youtube11" viewBox="0 0 32 32">
      <path d="M30.112 9.356s-.288-2.08-1.152-2.971c-1.056-1.189-2.304-1.189-2.88-1.288C22.048 4.8 16 4.8 16 4.8s-6.048 0-10.08.297c-.576.099-1.824.099-2.88 1.288-.864.891-1.152 2.971-1.152 2.971S1.6 11.733 1.6 14.11v2.179c0 2.377.288 4.853.288 4.853s.288 2.08 1.152 2.971c1.056 1.189 2.496 1.189 3.168 1.288 2.304.099 9.792.198 9.792.198s6.048 0 10.08-.297c.576-.099 1.824-.099 2.88-1.288.864-.891 1.152-2.971 1.152-2.971s.288-2.377.288-4.754V14.11c0-2.377-.288-4.754-.288-4.754zm-17.088 9.707v-8.32l7.776 4.16-7.776 4.16z"/>
    </symbol>
    <symbol id="icon-facebook11" viewBox="0 0 32 32">
      <path d="M19.52 4.64h.96v3.6h-1.2c-.48 0-.96 0-1.2.24s-.24.48-.24 1.04v1.28h2.64v3.04h-2.64v13.2h-4.08V13.76H11.6v-3.04h2.16V9.68c0-1.76.24-3.04.72-3.6.72-1.04 2.16-1.52 4.32-1.52.24.08.48.08.72.08z"/>
    </symbol>
    <symbol id="icon-burger-menu11" viewBox="0 0 32 32">
      <path stroke-linecap="round" stroke-linejoin="round" stroke-width="2.286" d="M28 13.333H4M28 8H4m24 10.667H4M28 24H4"/>
    </symbol>
    <symbol id="icon-chevron-down11" viewBox="0 0 32 32">
      <path stroke-linecap="round" stroke-linejoin="round" stroke-width="2.667" d="m8 12 8 8 8-8"/>
    </symbol>
  </defs>
</svg>