<svg xmlns="http://www.w3.org/2000/svg" width="40" height="40" fill="none" viewBox="0 0 40 40">
  <path stroke="#050505" stroke-linecap="round" stroke-linejoin="round" stroke-opacity=".2" d="M39.047 12.857V5.7A4.762 4.762 0 0 0 34.3.938L27.143.917m11.904 26.226v7.143a4.762 4.762 0 0 1-4.761 4.761h-7.143M12.857.917 5.7.94A4.762 4.762 0 0 0 .952 5.702v7.155m11.905 26.19H5.714a4.762 4.762 0 0 1-4.762-4.761v-7.143"/>
  <path fill="#050505" fill-opacity=".2" d="M19.999 24.297c.977 0 1.807-.342 2.49-1.025.684-.684 1.026-1.514 1.026-2.49 0-.977-.342-1.808-1.025-2.491-.684-.684-1.514-1.025-2.491-1.025-.976 0-1.807.341-2.49 1.025-.684.683-1.026 1.514-1.026 2.49 0 .977.342 1.807 1.025 2.49.684.684 1.515 1.026 2.491 1.026Zm-6.25 2.734c-.43 0-.797-.153-1.103-.458a1.505 1.505 0 0 1-.46-1.104v-9.375c0-.43.154-.798.46-1.103a1.5 1.5 0 0 1 1.103-.46h2.461l1.445-1.562h4.688l1.445 1.562h2.461c.43 0 .798.153 1.104.46a1.5 1.5 0 0 1 .458 1.103v9.375c0 .43-.152.797-.458 1.104a1.506 1.506 0 0 1-1.104.458h-12.5Z"/>
</svg>
