<svg xmlns="http://www.w3.org/2000/svg" width="40" height="40" fill="none" viewBox="0 0 40 40">
  <path fill="#050505" fill-opacity=".2" d="M.5 34.37v-7.143a.5.5 0 1 1 1 0v7.142a4.262 4.262 0 0 0 4.262 4.262h7.142a.5.5 0 0 1 0 1H5.762A5.262 5.262 0 0 1 .5 34.369Zm38.096 0v-7.143a.5.5 0 1 1 1 0v7.142a5.262 5.262 0 0 1-5.263 5.262H27.19a.5.5 0 0 1 0-1h7.143a4.262 4.262 0 0 0 4.263-4.262ZM.5 12.94V5.786A5.263 5.263 0 0 1 5.746.523L12.903.5l.1.01a.5.5 0 0 1-.097.99l-7.157.023A4.262 4.262 0 0 0 1.5 5.786v7.154a.5.5 0 1 1-1 0Zm38.096 0V5.783a4.262 4.262 0 0 0-4.04-4.256l-.21-.006L27.19 1.5l-.102-.01a.5.5 0 0 1 .104-.99l7.157.021.26.007a5.262 5.262 0 0 1 4.987 5.255v7.157a.5.5 0 0 1-1 0ZM20.047 24.38c.976 0 1.807-.341 2.49-1.025.684-.683 1.026-1.514 1.026-2.49 0-.977-.342-1.807-1.025-2.49-.684-.684-1.515-1.026-2.491-1.026-.977 0-1.807.342-2.49 1.025-.684.684-1.026 1.514-1.026 2.49 0 .977.342 1.808 1.025 2.491.684.684 1.514 1.025 2.49 1.025Zm-6.25 2.735c-.43 0-.798-.153-1.103-.459a1.505 1.505 0 0 1-.46-1.104v-9.375c0-.43.153-.797.46-1.103.305-.306.673-.46 1.103-.46h2.46l1.446-1.562h4.688l1.445 1.563h2.46c.43 0 .799.153 1.105.46.305.305.458.673.458 1.102v9.375c0 .43-.153.798-.458 1.104a1.507 1.507 0 0 1-1.104.459h-12.5Z"/>
</svg>
