<svg width="2517" height="2503" viewBox="0 0 2517 2503" fill="none" xmlns="http://www.w3.org/2000/svg">
<rect width="2517" height="2503" fill="#F7F7F7"/>
<path d="M961 1582.33C961 1581.9 962.809 1576.47 965.053 1570.17C967.296 1563.95 972 1550.34 975.619 1539.99C986.258 1509.24 987.705 1504.97 988.791 1502.36L989.876 1499.83H997.113C1001.46 1499.83 1004.5 1500.12 1004.78 1500.62C1005.07 1500.99 1008.84 1511.84 1013.25 1524.65C1017.59 1537.46 1023.75 1555.41 1026.86 1564.53C1029.97 1573.65 1032.36 1581.54 1032.14 1582.04C1031.85 1582.84 1029.97 1583.06 1024.4 1583.06C1015.79 1583.06 1016.73 1584 1013.47 1572.78L1011.44 1565.69H997.113H982.784L980.034 1574.23L977.284 1582.69L969.178 1582.91C963.678 1583.06 961 1582.84 961 1582.33ZM1003.92 1540.94C1001.75 1534.42 999.574 1527.55 999.067 1525.52C998.054 1521.83 996.39 1520.67 995.811 1523.35C995.594 1524.8 987.705 1548.97 986.692 1551.43C986.185 1552.59 986.981 1552.66 997.041 1552.66H1007.9L1003.92 1540.94Z" fill="#838383"/>
<path d="M1056.1 1580.38C1055.66 1578.86 1049.87 1561.05 1043.21 1540.86C1036.56 1520.67 1031.27 1503.59 1031.49 1503.01C1031.85 1502.14 1033.3 1502 1039.6 1502.14L1047.27 1502.36L1048.57 1506.7C1057.91 1537.82 1063.41 1556.57 1064.13 1559.53C1064.56 1561.56 1065.29 1563.01 1065.65 1562.79C1066.23 1562.43 1070.5 1548.9 1079.69 1517.92C1081.64 1511.34 1083.52 1505.11 1083.96 1503.95L1084.76 1502H1092.35H1099.95L1099.88 1504.03C1099.88 1505.11 1094.09 1523.28 1087.07 1544.34L1074.26 1582.69L1065.58 1582.91L1056.82 1583.13L1056.1 1580.38Z" fill="#838383"/>
<path d="M1098.51 1581.9C1098.51 1581.25 1100.75 1574.37 1103.5 1566.55C1108.93 1550.99 1119.49 1520.53 1123.62 1508.51C1125.07 1504.32 1126.59 1500.7 1127.02 1500.41C1128.47 1499.39 1140.99 1499.76 1141.78 1500.77C1142.22 1501.28 1145.04 1508.87 1148.01 1517.63C1150.9 1526.32 1156.98 1544.05 1161.4 1557C1165.81 1569.96 1169.43 1581.1 1169.43 1581.82C1169.43 1582.98 1168.71 1583.06 1161.69 1582.91L1153.94 1582.69L1153 1580.16C1152.57 1578.79 1151.34 1575.02 1150.4 1571.84L1148.66 1566.05H1134.26H1119.86L1117.68 1573.36C1116.45 1577.41 1115.01 1581.25 1114.5 1581.9C1113.05 1583.63 1098.51 1583.63 1098.51 1581.9ZM1144.82 1552.37C1144.82 1551.43 1134.55 1520.74 1134.26 1521.03C1134.11 1521.18 1131.58 1528.34 1128.68 1536.95L1123.4 1552.66H1134.11C1139.97 1552.66 1144.82 1552.51 1144.82 1552.37Z" fill="#838383"/>
<path d="M1184.27 1582.19C1184.05 1581.68 1183.98 1563.51 1184.05 1541.8L1184.27 1502.36H1191.86H1199.46V1542.53V1582.69L1192.01 1582.91C1186.51 1583.06 1184.48 1582.84 1184.27 1582.19Z" fill="#838383"/>
<path d="M1219.73 1582.33C1219.37 1581.75 1219 1507.79 1219.29 1502.94C1219.37 1502.22 1221.39 1502 1226.89 1502C1233.48 1502 1234.42 1502.14 1234.71 1503.3C1234.93 1503.95 1235 1519.15 1234.85 1536.95L1234.64 1569.3H1250.78C1262.64 1569.3 1267.2 1569.52 1268.14 1570.25C1269.16 1570.97 1269.3 1572.13 1269.16 1576.9L1268.94 1582.69L1244.55 1582.91C1228.56 1582.98 1220.02 1582.84 1219.73 1582.33ZM1255.05 1571.69C1251.79 1571.55 1246.22 1571.55 1242.74 1571.69C1239.27 1571.77 1241.95 1571.91 1248.68 1571.91C1255.48 1571.91 1258.3 1571.77 1255.05 1571.69ZM1232.9 1547.81C1232.83 1543.9 1232.68 1546.94 1232.68 1554.47C1232.68 1562.07 1232.83 1565.25 1232.9 1561.56C1233.04 1557.87 1233.04 1551.72 1232.9 1547.81ZM1232.9 1514.52C1232.83 1509.82 1232.68 1513.51 1232.68 1522.63C1232.68 1531.82 1232.83 1535.65 1232.9 1531.16C1233.04 1526.68 1233.04 1519.22 1232.9 1514.52ZM1228.63 1503.66C1227.54 1503.52 1225.59 1503.52 1224.29 1503.66C1222.98 1503.81 1223.85 1503.95 1226.24 1503.95C1228.63 1503.95 1229.72 1503.81 1228.63 1503.66Z" fill="#838383"/>
<path d="M1279.43 1581.46C1279.43 1580.52 1281.61 1573.65 1284.21 1566.05C1286.82 1558.52 1292.68 1541.37 1297.24 1528.05C1301.8 1514.74 1305.92 1503.01 1306.43 1502C1307.3 1500.33 1307.8 1500.19 1313.45 1499.97C1321.84 1499.68 1322.35 1499.9 1323.73 1503.95C1324.38 1505.83 1328.5 1517.99 1332.99 1530.95C1347.46 1573 1350.36 1581.75 1349.92 1582.4C1349.71 1582.77 1346.16 1583.06 1342.04 1583.06H1334.58L1333.57 1580.38C1332.99 1578.86 1331.69 1574.95 1330.75 1571.69L1329.01 1565.69H1314.68C1303.9 1565.69 1300.28 1565.9 1300.06 1566.63C1299.92 1567.06 1298.69 1570.9 1297.38 1575.09L1294.99 1582.69L1287.25 1582.91C1279.51 1583.13 1279.43 1583.06 1279.43 1581.46ZM1320.54 1537.68C1317.79 1529.43 1315.26 1522.19 1314.9 1521.54C1314.32 1520.6 1314.24 1520.6 1313.96 1521.54C1309.47 1535.72 1305.05 1549.11 1304.26 1550.71L1303.24 1552.66H1314.46H1325.61L1320.54 1537.68Z" fill="#838383"/>
<path d="M1363.82 1581.9C1363.6 1581.25 1363.39 1562.94 1363.39 1541.08C1363.39 1505.62 1363.53 1501.42 1364.54 1500.99C1366.57 1500.19 1395.3 1500.55 1400.22 1501.35C1405.87 1502.36 1412.24 1505.33 1415.42 1508.59C1424.25 1517.41 1422.58 1531.53 1411.95 1538.26L1410.14 1539.34L1413.54 1541.01C1422.58 1545.42 1426.49 1556.49 1422.66 1566.84C1419.83 1574.37 1412.45 1579.87 1402.1 1582.04C1399.28 1582.69 1391.9 1582.98 1381.04 1583.06C1366.42 1583.06 1364.18 1582.91 1363.82 1581.9ZM1402.03 1568.22C1410.06 1564.17 1410.35 1553.74 1402.54 1549.19C1399.43 1547.38 1398.49 1547.23 1389.29 1547.01L1379.31 1546.72V1558.45V1570.17L1389.29 1569.88C1397.47 1569.74 1399.72 1569.38 1402.03 1568.22ZM1399.57 1532.18C1405.29 1529.28 1407.17 1522.41 1403.48 1517.92C1400.22 1514.09 1398.41 1513.58 1388.35 1513.58H1379.31V1523.71V1533.84H1387.85C1395.23 1533.77 1396.75 1533.55 1399.57 1532.18Z" fill="#838383"/>
<path d="M1439.81 1581.9C1439.23 1580.45 1439.23 1504.6 1439.81 1503.16C1440.17 1502.22 1441.62 1502 1447.77 1502C1454.93 1502 1455.3 1502.07 1455.66 1503.66C1455.88 1504.53 1456.02 1519.8 1455.88 1537.53L1455.66 1569.88L1472.38 1569.81C1481.57 1569.81 1489.46 1570.03 1489.96 1570.32C1490.47 1570.61 1490.76 1573 1490.76 1576.54C1490.76 1581.03 1490.54 1582.26 1489.6 1582.62C1488.95 1582.84 1477.59 1583.06 1464.34 1583.06C1443.07 1583.06 1440.17 1582.91 1439.81 1581.9ZM1475.42 1571.69C1472.38 1571.55 1467.17 1571.55 1463.84 1571.69C1460.51 1571.77 1463.04 1571.91 1469.41 1571.91C1475.78 1571.91 1478.46 1571.77 1475.42 1571.69Z" fill="#838383"/>
<path d="M1505.02 1582.55C1504.73 1582.33 1504.51 1563.95 1504.51 1541.73C1504.51 1502.51 1504.58 1501.28 1505.88 1500.55C1507.4 1499.76 1552.71 1499.47 1554.74 1500.26C1555.68 1500.62 1555.89 1501.93 1555.89 1507.14V1513.58H1537.8H1519.71V1524.07V1534.57H1535.63H1551.55V1540.72C1551.55 1546.07 1551.41 1546.87 1550.32 1546.87C1549.6 1546.94 1542.43 1546.87 1534.4 1546.87L1519.71 1546.8V1558.38V1570.03L1538.38 1570.17L1556.98 1570.39V1576.54V1582.69L1531.21 1582.91C1517.1 1582.98 1505.31 1582.84 1505.02 1582.55ZM1518.04 1561.56C1517.9 1560.4 1517.75 1561.34 1517.75 1563.52C1517.75 1565.69 1517.9 1566.63 1518.04 1565.54C1518.19 1564.38 1518.19 1562.65 1518.04 1561.56ZM1518.04 1549.98C1517.9 1548.82 1517.75 1549.62 1517.75 1551.57C1517.75 1553.6 1517.9 1554.47 1518.04 1553.6C1518.19 1552.66 1518.19 1551.07 1518.04 1549.98Z" fill="#838383"/>
<path d="M1094.53 1456.12C1082.51 1453.15 1074.77 1444.17 1072.09 1430.06C1070.72 1422.75 1070.64 1405.46 1072.09 1398.22C1074.62 1384.76 1082.29 1375.78 1093.8 1372.74C1099.3 1371.22 1110.52 1371.44 1115.3 1373.11C1131 1378.53 1137.59 1392.21 1136.65 1417.69C1136.07 1433.32 1133.24 1441.79 1126.51 1448.52C1119.28 1455.83 1105.96 1458.94 1094.53 1456.12ZM1113.27 1441.13C1114.72 1440.19 1116.74 1437.81 1117.83 1435.78C1119.86 1432.16 1119.86 1432.09 1120.07 1416.09C1120.43 1394.38 1119.13 1390.04 1111.17 1386.28C1103.28 1382.59 1093.51 1385.48 1089.82 1392.79C1087.79 1396.7 1086.64 1408.5 1087.22 1419.86C1087.87 1433.9 1089.75 1438.82 1095.76 1441.93C1100.17 1444.1 1109.51 1443.74 1113.27 1441.13ZM1085.26 1422.25C1085.12 1421.31 1084.97 1422.03 1084.97 1423.84C1084.97 1425.65 1085.12 1426.37 1085.26 1425.5C1085.41 1424.56 1085.41 1423.11 1085.26 1422.25ZM1085.26 1407.41C1085.12 1405.89 1084.97 1406.98 1084.97 1409.73C1084.97 1412.55 1085.12 1413.71 1085.26 1412.48C1085.41 1411.17 1085.41 1408.86 1085.26 1407.41Z" fill="#838383"/>
<path d="M1419.11 1456.12C1408.33 1453.73 1401.45 1446.71 1398.05 1434.55C1396.6 1429.27 1396.39 1426.95 1396.46 1414.79C1396.46 1399.52 1397.25 1394.31 1400.95 1387.07C1403.84 1381.36 1408.18 1377.09 1413.9 1374.41C1418.24 1372.38 1419.62 1372.09 1426.71 1371.88C1438.65 1371.44 1445.89 1374.05 1451.39 1380.78C1454.5 1384.69 1457.9 1393.15 1456.74 1394.53C1455.73 1395.76 1447.99 1398 1445.89 1397.64C1444.51 1397.49 1443.57 1396.41 1441.98 1393.23C1439.09 1387.44 1435.76 1385.26 1429.32 1384.9C1425.33 1384.69 1423.96 1384.97 1421.28 1386.42C1419.47 1387.36 1417.16 1389.39 1416.07 1390.98C1413.03 1395.4 1412.45 1400.17 1412.74 1416.67L1412.96 1431.51L1415.13 1435.78C1417.81 1440.99 1420.41 1442.73 1426.57 1443.16C1437.71 1444.1 1444.44 1438.02 1444.44 1427.17V1423.84H1437.2H1429.97V1417.69V1411.53H1444.37C1456.38 1411.53 1458.92 1411.75 1459.64 1412.62C1461.09 1414.36 1460.15 1430.93 1458.26 1436.86C1455.15 1446.71 1448.57 1453.08 1438.87 1455.75C1433.3 1457.35 1425.12 1457.49 1419.11 1456.12Z" fill="#838383"/>
<path d="M990.672 1455.17C990.672 1454.81 990.672 1436.36 990.672 1414.07V1373.54H997.692H1004.78L1015.13 1390.19C1027.94 1410.96 1035.61 1423.55 1036.99 1426.37C1038 1428.33 1038.08 1426.15 1038.44 1401.04L1038.8 1373.54L1046.25 1373.32L1053.64 1373.11V1414.43V1455.75L1046.25 1455.54L1038.87 1455.32L1023.46 1430.35C1014.99 1416.6 1007.68 1404.51 1007.17 1403.43C1006.67 1402.27 1006.09 1401.4 1005.87 1401.4C1005.65 1401.4 1005.36 1413.27 1005.36 1427.82C1005.29 1442.29 1005.07 1454.52 1004.78 1454.96C1004.28 1455.75 990.672 1455.97 990.672 1455.17Z" fill="#838383"/>
<path d="M1187.16 1454.81C1186.94 1454.31 1186.87 1435.78 1186.94 1413.71L1187.16 1373.54L1194.98 1373.32L1202.72 1373.11V1414.43V1455.68H1195.12C1189.69 1455.68 1187.38 1455.39 1187.16 1454.81ZM1201.06 1440.7C1200.91 1439.18 1200.77 1440.27 1200.77 1443.02C1200.77 1445.84 1200.91 1447 1201.06 1445.77C1201.2 1444.46 1201.2 1442.15 1201.06 1440.7ZM1201.27 1434.26C1201.27 1433.25 1200.98 1432.6 1200.62 1432.81C1200.12 1433.17 1200.04 1434.48 1200.48 1436C1200.77 1436.87 1201.27 1435.78 1201.27 1434.26ZM1200.33 1397.64C1200.26 1393.95 1200.12 1396.77 1200.12 1403.94C1200.12 1411.1 1200.26 1414.14 1200.33 1410.67C1200.48 1407.19 1200.48 1401.33 1200.33 1397.64Z" fill="#838383"/>
<path d="M1222.62 1454.81C1222.41 1454.31 1222.33 1435.78 1222.41 1413.71L1222.62 1373.54L1230.73 1373.32C1238.18 1373.18 1238.91 1373.25 1239.63 1374.55C1240.06 1375.35 1243.61 1383.31 1247.52 1392.14C1251.43 1401.04 1256.35 1412.26 1258.52 1417.11C1260.69 1421.96 1262.64 1425.72 1262.93 1425.43C1263.44 1424.92 1269.3 1411.82 1281.03 1384.97L1286.16 1373.18H1294.34H1302.59L1302.45 1414.29L1302.23 1455.32L1294.85 1455.54L1287.4 1455.75V1428.9C1287.4 1411.9 1287.11 1402.13 1286.67 1402.13C1286.31 1402.13 1285.73 1403 1285.51 1404.01C1285.01 1405.89 1271.04 1437.52 1269.52 1440.05C1268.8 1441.28 1267.93 1441.5 1262.79 1441.42C1258.81 1441.35 1256.49 1440.99 1255.91 1440.34C1255.33 1439.83 1251.21 1431.29 1246.65 1421.38C1242.16 1411.39 1238.11 1403.21 1237.75 1403.07C1237.39 1402.92 1237.1 1413.49 1237.1 1429.05V1455.32L1230 1455.54C1224.79 1455.68 1222.84 1455.46 1222.62 1454.81Z" fill="#838383"/>
<path d="M1317.07 1454.52C1317.07 1453.94 1319.24 1447.36 1321.84 1439.9C1324.45 1432.45 1329.66 1417.4 1333.5 1406.47C1337.26 1395.54 1341.38 1383.45 1342.69 1379.69L1345.08 1372.82L1352.75 1372.6L1360.35 1372.38L1362.15 1378.03C1363.1 1381.14 1368.09 1395.76 1373.16 1410.45C1387.63 1452.42 1387.99 1453.58 1387.99 1454.67C1387.99 1455.46 1386.4 1455.68 1380.1 1455.68H1372.21L1369.9 1448.3C1368.67 1444.17 1367.44 1440.27 1367.29 1439.54C1366.93 1438.38 1365.77 1438.31 1352.67 1438.46L1338.49 1438.67L1335.74 1447C1334.29 1451.56 1332.99 1455.39 1332.99 1455.54C1332.99 1455.61 1329.44 1455.68 1325.03 1455.68C1318.3 1455.68 1317.07 1455.54 1317.07 1454.52ZM1362.73 1423.69C1362.44 1422.75 1360.13 1415.59 1357.6 1407.77C1353.47 1395.03 1351.81 1391.13 1351.81 1394.53C1351.81 1395.11 1349.56 1402.27 1346.88 1410.45L1341.89 1425.29H1352.6H1363.39L1362.73 1423.69Z" fill="#838383"/>
<path d="M1476.28 1455.18C1475.99 1449.6 1476.21 1373.03 1476.5 1372.74C1477.23 1372.02 1525.79 1371.88 1527.16 1372.6C1528.17 1373.11 1528.39 1374.26 1528.39 1378.9C1528.39 1384.18 1528.25 1384.61 1526.8 1385.05C1525.86 1385.26 1517.54 1385.48 1508.35 1385.48H1491.48V1395.98V1406.47H1506.97C1520.43 1406.47 1522.53 1406.61 1522.89 1407.63C1523.69 1409.73 1523.4 1417.83 1522.46 1418.48C1521.95 1418.84 1514.79 1419.13 1506.54 1419.13H1491.48V1431.08V1443.02L1509.72 1442.8C1523.9 1442.65 1528.03 1442.8 1528.54 1443.52C1529.33 1444.83 1529.26 1451.56 1528.39 1453.8L1527.67 1455.68H1501.98C1487.86 1455.68 1476.28 1455.46 1476.28 1455.18ZM1498.57 1453.73C1497.85 1453.58 1496.69 1453.58 1496.04 1453.73C1495.32 1453.94 1495.9 1454.09 1497.27 1454.09C1498.65 1454.09 1499.23 1453.94 1498.57 1453.73Z" fill="#838383"/>
<path d="M1240.35 1295.96C1181.23 1293.71 1150.32 1285.46 1141.49 1269.54L1139.4 1265.71V1202.74V1139.78L1133.24 1138.26C1116.82 1134.14 1104.51 1127.4 1093.29 1116.19C1081.43 1104.39 1073.54 1089.63 1069.77 1072.11C1067.96 1063.65 1068.04 1047.43 1069.85 1038.46C1076.87 1004.52 1102.34 979.261 1137.95 971.083C1141.42 970.286 1147.36 969.852 1156.69 969.707L1170.37 969.49L1171.96 966.596C1177.32 957.187 1190.63 943.22 1200.55 936.634C1225.08 920.423 1252.87 915.284 1282.26 921.653C1298.25 925.127 1315.04 933.449 1326.84 943.799C1332.12 948.43 1339.72 957.332 1344.13 963.99L1348.04 969.78L1353.33 969.201C1371.92 967.102 1395.16 973.037 1411.51 984.037C1416.72 987.511 1426.78 997.136 1431.05 1002.64C1449.94 1027.17 1454.14 1061.26 1441.62 1090.13C1433.95 1108.08 1419.11 1123.42 1401.38 1131.89C1394.65 1135.08 1383.43 1138.69 1380.18 1138.69H1378.37L1378.73 1200.28C1379.02 1240.96 1378.87 1262.88 1378.37 1264.91C1376.12 1273.96 1366.79 1281.56 1351.66 1286.62C1331.04 1293.5 1282.55 1297.62 1240.35 1295.96ZM1294.99 1274.68C1320.25 1273.16 1340.88 1269.47 1351.44 1264.62C1358.32 1261.51 1358.39 1261.36 1358.17 1250.15L1357.96 1240.45L1355.79 1239.87C1300.35 1223.73 1220.52 1223.59 1166.17 1239.44L1160.38 1241.17L1160.02 1250.15C1159.8 1255.14 1159.88 1259.77 1160.24 1260.42C1161.11 1262.45 1170.59 1266.5 1178.84 1268.53C1206.41 1275.11 1250.41 1277.5 1294.99 1274.68ZM1161.32 1219.82C1163.78 1218.52 1179.34 1214.76 1189.69 1212.95C1210.17 1209.4 1240.72 1206.72 1261.2 1206.72C1291.74 1206.72 1332.99 1211.72 1352.75 1217.87L1358.32 1219.61V1172.42C1358.32 1130.95 1358.46 1125.09 1359.48 1123.64C1361.14 1121.25 1362.52 1120.75 1370.84 1119.52C1383.79 1117.63 1392.84 1113.8 1403.19 1106.06C1409.63 1101.21 1416.72 1092.88 1420.49 1085.94C1423.74 1079.78 1426.93 1069.65 1427.8 1062.42C1430.76 1038.32 1417.52 1012.41 1395.45 999.018C1382.35 991.057 1363.96 988.017 1348.91 991.347C1342.47 992.722 1339 992.794 1336.82 991.564C1335.88 991.057 1333.5 987.728 1331.47 984.182C1319.67 963.556 1304.69 950.746 1284.64 944.016C1255.91 934.39 1224.65 941.193 1202.79 961.819C1186.94 976.728 1177.03 999.959 1178.33 1018.78C1178.84 1025.65 1182.24 1037.23 1184.99 1041.28C1186 1042.8 1186.65 1044.25 1186.44 1044.61C1185.5 1046.06 1180.65 1046.93 1177.68 1046.13C1170.8 1044.25 1165.38 1038.75 1162.26 1030.5C1158.43 1020.3 1158.57 1001.55 1162.55 992.215C1163.13 990.912 1162.7 990.912 1153.07 991.274C1147.14 991.491 1141.06 992.143 1138.31 992.866C1132.3 994.459 1123.04 998.728 1117.61 1002.49C1112.76 1005.75 1103.5 1015.08 1100.17 1020.01C1083.16 1045.19 1086.13 1077.98 1107.55 1099.98C1116.74 1109.38 1125.28 1114.45 1137.95 1118C1141.57 1119.01 1147.07 1120.17 1150.18 1120.53C1154.81 1121.11 1156.26 1121.54 1157.78 1123.06L1159.66 1125.02L1159.37 1172.71C1159.23 1198.98 1159.3 1220.47 1159.59 1220.47C1159.88 1220.47 1160.67 1220.18 1161.32 1219.82Z" fill="#838383"/>
<path d="M1240.35 1295.96C1181.23 1293.71 1150.32 1285.46 1141.49 1269.54L1139.4 1265.71V1202.74V1139.78L1133.24 1138.26C1116.82 1134.14 1104.51 1127.4 1093.29 1116.19C1081.43 1104.39 1073.54 1089.63 1069.77 1072.11C1067.96 1063.65 1068.04 1047.43 1069.85 1038.46C1076.87 1004.52 1102.34 979.261 1137.95 971.083C1141.42 970.286 1147.36 969.852 1156.69 969.707L1170.37 969.49L1171.96 966.596C1177.32 957.187 1190.63 943.22 1200.55 936.634C1225.08 920.423 1252.87 915.284 1282.26 921.653C1298.25 925.127 1315.04 933.449 1326.84 943.799C1332.12 948.43 1339.72 957.332 1344.13 963.99L1348.04 969.78L1353.33 969.201C1371.92 967.102 1395.16 973.037 1411.51 984.037C1416.72 987.511 1426.78 997.136 1431.05 1002.64C1449.94 1027.17 1454.14 1061.26 1441.62 1090.13C1433.95 1108.08 1419.11 1123.42 1401.38 1131.89C1394.65 1135.08 1383.43 1138.69 1380.18 1138.69H1378.37L1378.73 1200.28C1379.02 1240.96 1378.87 1262.88 1378.37 1264.91C1376.12 1273.96 1366.79 1281.56 1351.66 1286.62C1331.04 1293.5 1282.55 1297.62 1240.35 1295.96ZM1294.99 1274.68C1320.25 1273.16 1340.88 1269.47 1351.44 1264.62C1358.32 1261.51 1358.39 1261.36 1358.17 1250.15L1357.96 1240.45L1355.79 1239.87C1300.35 1223.73 1220.52 1223.59 1166.17 1239.44L1160.38 1241.17L1160.02 1250.15C1159.8 1255.14 1159.88 1259.77 1160.24 1260.42C1161.11 1262.45 1170.59 1266.5 1178.84 1268.53C1206.41 1275.11 1250.41 1277.5 1294.99 1274.68ZM1161.32 1219.82C1163.78 1218.52 1179.34 1214.76 1189.69 1212.95C1210.17 1209.4 1240.72 1206.72 1261.2 1206.72C1291.74 1206.72 1332.99 1211.72 1352.75 1217.87L1358.32 1219.61V1172.42C1358.32 1130.95 1358.46 1125.09 1359.48 1123.64C1361.14 1121.25 1362.52 1120.75 1370.84 1119.52C1383.79 1117.63 1392.84 1113.8 1403.19 1106.06C1409.63 1101.21 1416.72 1092.88 1420.49 1085.94C1423.74 1079.78 1426.93 1069.65 1427.8 1062.42C1430.76 1038.32 1417.52 1012.41 1395.45 999.018C1382.35 991.057 1363.96 988.017 1348.91 991.347C1342.47 992.722 1339 992.794 1336.82 991.564C1335.88 991.057 1333.5 987.728 1331.47 984.182C1319.67 963.556 1304.69 950.746 1284.64 944.016C1255.91 934.39 1224.65 941.193 1202.79 961.819C1186.94 976.728 1177.03 999.959 1178.33 1018.78C1178.84 1025.65 1182.24 1037.23 1184.99 1041.28C1186 1042.8 1186.65 1044.25 1186.44 1044.61C1185.5 1046.06 1180.65 1046.93 1177.68 1046.13C1170.8 1044.25 1165.38 1038.75 1162.26 1030.5C1158.43 1020.3 1158.57 1001.55 1162.55 992.215C1163.13 990.912 1162.7 990.912 1153.07 991.274C1147.14 991.491 1141.06 992.143 1138.31 992.866C1132.3 994.459 1123.04 998.728 1117.61 1002.49C1112.76 1005.75 1103.5 1015.08 1100.17 1020.01C1083.16 1045.19 1086.13 1077.98 1107.55 1099.98C1116.74 1109.38 1125.28 1114.45 1137.95 1118C1141.57 1119.01 1147.07 1120.17 1150.18 1120.53C1154.81 1121.11 1156.26 1121.54 1157.78 1123.06L1159.66 1125.02L1159.37 1172.71C1159.23 1198.98 1159.3 1220.47 1159.59 1220.47C1159.88 1220.47 1160.67 1220.18 1161.32 1219.82Z" fill="#838383"/>
</svg>
