<svg xmlns="http://www.w3.org/2000/svg" width="45" height="45" fill="none" viewBox="0 0 45 45">
  <path fill="#050505" d="M0 0h45v45H0z"/>
  <path fill="#fff" d="M10.2 21v-4.728H9.048v-1.356h1.668l-.516.468v-.876c0-.792.204-1.388.612-1.788.416-.4 1.036-.6 1.86-.6.184 0 .38.012.588.036.216.024.404.072.564.144v1.392a1.702 1.702 0 0 0-.384-.084 2.553 2.553 0 0 0-.42-.036c-.184 0-.356.032-.516.096a.805.805 0 0 0-.372.324c-.088.144-.132.34-.132.588v.636l-.252-.3h1.788v1.356h-1.524V21H10.2Zm6.672.132c-.648 0-1.212-.128-1.692-.384a2.817 2.817 0 0 1-1.104-1.104c-.256-.472-.384-1.036-.384-1.692 0-.648.128-1.208.384-1.68a2.737 2.737 0 0 1 1.104-1.092c.48-.256 1.044-.384 1.692-.384.648 0 1.212.128 1.692.384s.848.62 1.104 1.092c.264.472.396 1.032.396 1.68 0 .656-.132 1.22-.396 1.692-.256.472-.624.84-1.104 1.104-.48.256-1.044.384-1.692.384Zm0-1.368c.416 0 .744-.148.984-.444.248-.296.372-.752.372-1.368 0-.616-.124-1.068-.372-1.356-.24-.288-.568-.432-.984-.432-.416 0-.748.144-.996.432-.24.288-.36.74-.36 1.356 0 .616.12 1.072.36 1.368.248.296.58.444.996.444Zm7.003 1.368c-.648 0-1.212-.128-1.692-.384a2.817 2.817 0 0 1-1.105-1.104c-.255-.472-.383-1.036-.383-1.692 0-.648.128-1.208.383-1.68a2.737 2.737 0 0 1 1.105-1.092c.48-.256 1.044-.384 1.692-.384.648 0 1.212.128 1.692.384s.848.62 1.104 1.092c.264.472.396 1.032.396 1.68 0 .656-.133 1.22-.396 1.692-.256.472-.624.84-1.104 1.104-.48.256-1.044.384-1.692.384Zm0-1.368c.416 0 .744-.148.983-.444.248-.296.372-.752.372-1.368 0-.616-.123-1.068-.372-1.356-.24-.288-.567-.432-.983-.432-.416 0-.748.144-.997.432-.24.288-.36.74-.36 1.356 0 .616.12 1.072.36 1.368.248.296.58.444.997.444Zm6.51 1.368c-.528 0-.996-.128-1.404-.384-.4-.256-.716-.62-.948-1.092-.224-.472-.336-1.04-.336-1.704 0-.656.112-1.22.336-1.692.224-.472.54-.832.948-1.08a2.586 2.586 0 0 1 1.404-.384c.48 0 .908.116 1.284.348.384.224.64.528.768.912h-.156v-3.888h1.812V21h-1.788v-1.188h.156c-.128.4-.384.72-.768.96s-.82.36-1.308.36Zm.54-1.368c.416 0 .752-.148 1.008-.444.256-.296.384-.752.384-1.368 0-.616-.128-1.068-.384-1.356-.256-.288-.592-.432-1.008-.432-.416 0-.756.144-1.02.432-.256.288-.384.74-.384 1.356 0 .616.128 1.072.384 1.368.264.296.604.444 1.02.444ZM9.744 33v-6.084h1.812V33H9.744Zm-.072-7.08v-1.692h1.944v1.692H9.672Zm6.185 7.212c-1.056 0-1.88-.284-2.472-.852-.592-.568-.888-1.34-.888-2.316 0-.632.124-1.184.372-1.656.256-.472.608-.84 1.056-1.104.456-.272.988-.408 1.596-.408.6 0 1.1.128 1.5.384.408.256.712.616.912 1.08.208.456.312.988.312 1.596v.42h-4.26v-.9h2.94l-.204.168c0-.504-.104-.884-.312-1.14-.2-.264-.492-.396-.876-.396-.424 0-.752.156-.984.468-.224.312-.336.76-.336 1.344v.192c0 .592.144 1.032.432 1.32.296.288.72.432 1.272.432.328 0 .636-.04.924-.12.296-.088.576-.224.84-.408l.504 1.2a3.42 3.42 0 0 1-1.056.516c-.392.12-.816.18-1.272.18Zm5.542 0c-.544 0-1.04-.06-1.488-.18a3.644 3.644 0 0 1-1.14-.504l.468-1.2c.312.192.656.344 1.032.456.384.112.764.168 1.14.168.352 0 .612-.056.78-.168a.522.522 0 0 0 .252-.456.446.446 0 0 0-.168-.372c-.104-.088-.268-.152-.492-.192l-1.236-.228c-.52-.104-.916-.296-1.188-.576-.272-.28-.408-.644-.408-1.092 0-.392.104-.736.312-1.032.216-.304.524-.54.924-.708.4-.168.868-.252 1.404-.252.456 0 .888.056 1.296.168.408.112.756.284 1.044.516l-.492 1.164a3.143 3.143 0 0 0-.864-.444 2.793 2.793 0 0 0-.924-.168c-.384 0-.66.064-.828.192a.551.551 0 0 0-.252.468c0 .144.048.264.144.36.104.096.26.168.468.216l1.248.228c.536.096.944.276 1.224.54s.42.628.42 1.092c0 .424-.112.784-.336 1.08-.224.296-.54.524-.948.684-.4.16-.864.24-1.392.24Z"/>
</svg>
